# xmcd
#
# Track frame offsets:
#	150
#	17185
#	30644
#	44916
#	58018
#	73047
#	88926
#	104727
#	119843
#	135179
#	148222
#	162194
#	175392
#	188370
#	204985
#	218190
#	234008
#	245918
#	260942
#	277739
#	292571
#
# Disc length: 4099 seconds
#
# Revision: 1
# Processed by: cddbd v1.5.2PL0 Copyright (c) Steve Scherf et al.
# Submitted via: dBpowerAMP V4.0
#
DISCID=41100115
DTITLE=Various Artist - Hott Country Volume 261 Can
DYEAR=2017
DGENRE=Country
TTITLE0=Tim McGraw and Faith Hill - The Rest Of Our Life
TTITLE1=Dean Brody - 8th Day
TTITLE2=Blake Shelton - At The House
TTITLE3=Petric - 18 Ends
TTITLE4=Jon Pardi - She Ain't In It
TTITLE5=Dan Davidson - Say We Did
TTITLE6=Shania Twain - We Got Something They Don't
TTITLE7=Meghan Patrick - Country Music Made Me Do It
TTITLE8=Ronnie Dunn - That's Why They Make Jack Daniels
TTITLE9=George Canyon - More You
TTITLE10=Dustin Lynch - I'd be Jealous Too
TTITLE11=Cold Creek County - This Town Is You
TTITLE12=Eric Ethridge - Makin' Me Crazy
TTITLE13=Brad Paisley - Heaven South
TTITLE14=David James - Sun Set On It
TTITLE15=Ashley McBryde - A Little Dive Bar In Dahlonega
TTITLE16=Genevieve Fisher - You Me We
TTITLE17=Delta Rae - No Peace In Quiet
TTITLE18=Doc Walker - Sicka Whiskey
TTITLE19=Blane Howard - Promise To Love Her
TTITLE20=Presley and Taylor - Heart Over Mind
EXTD=
EXTT0=
EXTT1=
EXTT2=
EXTT3=
EXTT4=
EXTT5=
EXTT6=
EXTT7=
EXTT8=
EXTT9=
EXTT10=
EXTT11=
EXTT12=
EXTT13=
EXTT14=
EXTT15=
EXTT16=
EXTT17=
EXTT18=
EXTT19=
EXTT20=
PLAYORDER=
